# Blender v2.62 (sub 0) OBJ File: 'Ground.blend'
# www.blender.org
mtllib ShedWalls.mtl
o ShedWalls_Plane.003
v -1.000000 0.000000 -1.000000
v -1.000000 0.000000 1.000000
v -1.000000 1.000000 1.000000
v -1.000000 1.000000 -1.000000
v 1.000000 -0.000001 -1.000000
v 1.000000 0.999999 -1.000000
v 1.000000 -0.000001 -0.500000
v 1.000000 0.999999 -0.500000
v 1.100000 -0.000001 -0.500000
v 1.100000 0.999999 -0.500000
v 1.100000 -0.000001 -1.100000
v 1.100000 0.999998 -1.100000
v -1.100001 0.000000 -1.100000
v -1.100000 1.000000 -1.100000
v -1.100001 0.000001 1.100000
v -1.100000 1.000001 1.100000
v 1.100000 -0.000000 1.100000
v 1.100000 1.000000 1.100000
v 1.100000 -0.000001 0.500000
v 1.100000 0.999999 0.500000
v 1.000000 -0.000001 0.500000
v 1.000000 0.999999 0.500000
v 1.000000 -0.000000 1.000000
v 1.000000 1.000000 1.000000
vt 2.600010 1.000013
vt 2.600010 0.000013
vt 4.600009 0.000013
vt 4.600009 1.000013
vt 0.600010 1.000013
vt 0.600010 0.000013
vt 0.100010 1.000013
vt 0.100010 0.000012
vt 0.000009 1.000013
vt 0.000009 0.000013
vt 15.000009 0.000013
vt 15.000009 1.000013
vt 14.400008 1.000013
vt 14.400008 0.000013
vt 12.200009 1.000013
vt 12.200009 0.000013
vt 10.000009 1.000013
vt 10.000009 0.000013
vt 7.800009 1.000013
vt 7.800009 0.000013
vt 7.200010 1.000013
vt 7.200010 0.000013
vt 7.100009 1.000013
vt 7.100009 0.000013
vt 6.600009 1.000013
vt 6.600009 0.000013
vn 1.000000 -0.000001 0.000000
vn 0.000000 0.000000 1.000000
vn -1.000000 0.000001 -0.000000
vn 1.000000 -0.000000 0.000000
vn -0.000000 -0.000000 -1.000000
usemtl ShedWalls
s off
f 1/1/1 4/2/1 3/3/1
f 1/1/1 3/3/1 2/4/1
f 4/2/2 1/1/2 5/5/2
f 4/2/2 5/5/2 6/6/2
f 6/6/3 5/5/3 7/7/3
f 6/6/3 7/7/3 8/8/3
f 8/8/2 7/7/2 9/9/2
f 8/8/2 9/9/2 10/10/2
f 10/11/4 9/12/4 11/13/4
f 10/11/4 11/13/4 12/14/4
f 12/14/5 11/13/5 13/15/5
f 12/14/5 13/15/5 14/16/5
f 14/16/3 13/15/3 15/17/3
f 14/16/3 15/17/3 16/18/3
f 16/18/2 15/17/2 17/19/2
f 16/18/2 17/19/2 18/20/2
f 18/20/4 17/19/4 19/21/4
f 18/20/4 19/21/4 20/22/4
f 20/22/5 19/21/5 21/23/5
f 20/22/5 21/23/5 22/24/5
f 22/24/3 21/23/3 23/25/3
f 22/24/3 23/25/3 24/26/3
f 24/26/5 23/25/5 2/4/5
f 24/26/5 2/4/5 3/3/5
